<svg xmlns="http://www.w3.org/2000/svg" viewBox="0 0 389.91 100">
	<g id="L_1" data-name="L1">
		<path
			d="M152.31,30.13h1.14l17.64,38.48h-3.84l-5.82-12.42h-17.1l-5.7,12.42h-3.84Zm2,10.18a28.36,28.36,0,0,1-1.5-4.27,35.63,35.63,0,0,1-1.44,4.27l-5.64,12.81H160Z"
			fill="#1e1e1e" />
		<path d="M197.07,31.17h3.6V65.55h20.82v3.06H197.07Z" fill="#1e1e1e" />
		<path d="M247.47,31.17h3.66V68.61h-3.66Z" fill="#1e1e1e" />
		<path
			d="M285.69,68.7a17.17,17.17,0,0,1-5.37-3.26,10.26,10.26,0,0,1-3.09-4.71l3.06-1.09a9.65,9.65,0,0,0,4.47,5.28,13.72,13.72,0,0,0,7,1.94,11.62,11.62,0,0,0,5-1.07,8.66,8.66,0,0,0,3.6-3,7.63,7.63,0,0,0,1.32-4.4,6.07,6.07,0,0,0-1.59-4.33,17,17,0,0,0-5.37-3.39Q289.65,48.41,287,47a15,15,0,0,1-4.32-3.37A6.83,6.83,0,0,1,281,39a7.42,7.42,0,0,1,1.56-4.66,10,10,0,0,1,4.17-3.12,14.35,14.35,0,0,1,5.61-1.09,12.83,12.83,0,0,1,4.71.85,8,8,0,0,1,3.42,2.35,4.69,4.69,0,0,1,1.11,3.37l-3.36-.17A2.76,2.76,0,0,0,296.34,34a9.44,9.44,0,0,0-4.11-.9,8.82,8.82,0,0,0-5.37,1.64,4.89,4.89,0,0,0-2.25,4A4.76,4.76,0,0,0,286,42.17a12.31,12.31,0,0,0,3.27,2.49q1.89,1,4.77,2.22l1.26.55a12.19,12.19,0,0,1,1.26.6,20.54,20.54,0,0,1,6.75,4.68,8.57,8.57,0,0,1,2,5.72,9.83,9.83,0,0,1-1.89,5.94,12.62,12.62,0,0,1-5,4,15.56,15.56,0,0,1-6.66,1.45A16.88,16.88,0,0,1,285.69,68.7Z"
			fill="#1e1e1e" />
		<path d="M332.07,31.17h3.66V68.61h-3.66Z" fill="#1e1e1e" />
		<path
			d="M370.29,68.7a17.17,17.17,0,0,1-5.37-3.26,10.26,10.26,0,0,1-3.09-4.71l3.06-1.09a9.65,9.65,0,0,0,4.47,5.28,13.72,13.72,0,0,0,7,1.94,11.62,11.62,0,0,0,5-1.07,8.66,8.66,0,0,0,3.6-3,7.63,7.63,0,0,0,1.32-4.4,6.07,6.07,0,0,0-1.59-4.33,17,17,0,0,0-5.37-3.39q-5.1-2.25-7.74-3.67a15,15,0,0,1-4.32-3.37A6.83,6.83,0,0,1,365.61,39a7.42,7.42,0,0,1,1.56-4.66,10,10,0,0,1,4.17-3.12A14.35,14.35,0,0,1,377,30.13a12.83,12.83,0,0,1,4.71.85,8,8,0,0,1,3.42,2.35,4.69,4.69,0,0,1,1.11,3.37l-3.36-.17A2.76,2.76,0,0,0,380.94,34a9.44,9.44,0,0,0-4.11-.9,8.82,8.82,0,0,0-5.37,1.64,4.89,4.89,0,0,0-2.25,4,4.76,4.76,0,0,0,1.38,3.34,12.31,12.31,0,0,0,3.27,2.49q1.89,1,4.77,2.22l1.26.55a12.19,12.19,0,0,1,1.26.6,20.54,20.54,0,0,1,6.75,4.68,8.57,8.57,0,0,1,2,5.72A9.83,9.83,0,0,1,388,64.37a12.62,12.62,0,0,1-5,4,15.56,15.56,0,0,1-6.66,1.45A16.88,16.88,0,0,1,370.29,68.7Z"
			fill="#1e1e1e" />
		<g opacity="0.85">
			<polygon points="58.06 37.34 58.54 37.69 59.11 37.5 58.67 36.89 58.06 37.34" fill="#1e1e1e" />
			<polygon points="58.61 62.52 58.12 62.88 58.73 63.32 59.17 62.71 58.61 62.52" fill="#1e1e1e" />
			<polygon points="61.94 38.41 62.29 38.89 62.89 38.89 62.65 38.18 61.94 38.41" fill="#1e1e1e" />
			<polygon points="62.34 61.3 61.99 61.78 62.71 62.01 62.94 61.3 62.34 61.3" fill="#1e1e1e" />
			<path d="M62.54,68.22l-1.35,4.2,2.72,3.73a35.52,35.52,0,0,1,2.21-4.61v-.73Z" fill="#1e1e1e" />
			<polygon points="87.22 50.03 79.23 47.46 75.67 50.06 79.24 52.65 87.22 50.03" fill="#1e1e1e" />
			<path d="M70,34c-.78-.92-1.51-1.88-2.2-2.87v3.58Z" fill="#1e1e1e" />
			<path d="M67.85,65.5v3.28c.63-.91,1.3-1.78,2-2.63Z" fill="#1e1e1e" />
			<polygon points="58.05 24.14 58.05 28.99 59.15 27.48 58.05 24.14" fill="#1e1e1e" />
			<polygon points="61.62 65.4 62.18 63.67 60.92 63.27 60.15 64.34 61.62 65.4" fill="#1e1e1e" />
			<path d="M62.45,32,66,29.37v-1.1a36.46,36.46,0,0,1-2.09-4.42l-2.84,3.93Z" fill="#1e1e1e" />
			<polygon points="99.06 52.02 108.16 50 99.07 47.98 92.86 50.02 99.06 52.02" fill="#1e1e1e" />
			<polygon points="64.31 37.63 64.72 38.89 66.04 38.88 66.03 37.07 64.31 37.63" fill="#1e1e1e" />
			<polygon points="63.02 33.71 63.77 35.98 66.03 35.23 66.02 31.52 63.02 33.71" fill="#1e1e1e" />
			<polygon points="58.05 31.96 58.05 33.09 59.05 34.46 60.97 33.05 59.82 29.52 58.05 31.96" fill="#1e1e1e" />
			<polygon points="60.08 35.87 60.85 36.93 62.11 36.52 61.54 34.79 60.08 35.87" fill="#1e1e1e" />
			<polygon points="58.05 71.08 58.05 76.48 59.26 72.73 58.05 71.08" fill="#1e1e1e" />
			<polygon points="69.65 59.54 69.08 57.81 67.83 58.22 67.83 59.54 69.65 59.54" fill="#1e1e1e" />
			<polygon points="63.84 64.21 63.11 66.48 66.11 68.65 66.11 64.94 63.84 64.21" fill="#1e1e1e" />
			<polygon points="61.06 67.15 59.13 65.75 58.05 67.24 58.05 68.12 59.92 70.68 61.06 67.15" fill="#1e1e1e" />
			<polygon points="65.29 40.63 65.48 41.2 66.05 41.38 66.04 40.63 65.29 40.63" fill="#1e1e1e" />
			<polygon points="65.52 58.98 65.34 59.55 66.09 59.55 66.09 58.79 65.52 58.98" fill="#1e1e1e" />
			<polygon points="64.78 61.29 64.37 62.55 66.1 63.11 66.1 61.29 64.78 61.29" fill="#1e1e1e" />
			<path d="M78.92,45.53,82,43.26a38,38,0,0,1-4.65-2.66H77.3l-2.58,3.58Z" fill="#1e1e1e" />
			<path d="M95.69,52.76,90,50.94l-9.05,3,2.83,2a35.29,35.29,0,0,1,6-1.87Z" fill="#1e1e1e" />
			<polygon points="72.25 47.59 74.18 48.99 77.18 46.8 73.64 45.66 72.25 47.59" fill="#1e1e1e" />
			<path d="M67.78,38.88h2.39l1.11-3.44-.06-.06L67.78,36.5Z" fill="#1e1e1e" />
			<polygon points="75.2 59.52 73.01 56.53 70.74 57.27 71.48 59.53 75.2 59.52" fill="#1e1e1e" />
			<path d="M72.06,61.27l.62,1.9c.69-.66,1.42-1.3,2.16-1.9Z" fill="#1e1e1e" />
			<polygon points="68.54 56.15 68.31 55.44 67.83 55.79 67.83 56.39 68.54 56.15" fill="#1e1e1e" />
			<polygon points="58.05 90.49 58.05 99.51 58.16 100 59.37 94.52 58.05 90.49" fill="#1e1e1e" />
			<path d="M83.87,44.07,81,46.19,90,49.11l5.69-1.87-6-1.32A35.6,35.6,0,0,1,83.87,44.07Z" fill="#1e1e1e" />
			<polygon points="59.31 5.19 58.16 0 58.05 0.49 58.05 9.09 59.31 5.19" fill="#1e1e1e" />
			<path d="M63.2,78.13l-2.67-3.66-2.48,7.69v2.73l2.06,6.29,2.13-9.56A33.89,33.89,0,0,1,63.2,78.13Z"
				fill="#1e1e1e" />
			<path d="M58.05,14.78v3.76l2.36,7.19,2.79-3.86a33.89,33.89,0,0,1-1-3.49L60.06,8.56Z" fill="#1e1e1e" />
			<path d="M75,38.86c-.81-.65-1.6-1.33-2.35-2L72,38.87Z" fill="#1e1e1e" />
			<path d="M67.84,61.29v2.38l3.28,1.06.17-.18-1.08-3.27Z" fill="#1e1e1e" />
			<path d="M74.75,56l2.55,3.5A37.87,37.87,0,0,1,82,56.77l-3-2.19Z" fill="#1e1e1e" />
			<polygon points="69.05 42.35 69.6 40.62 67.79 40.62 67.79 41.94 69.05 42.35" fill="#1e1e1e" />
			<polygon points="70.45 50.08 71.23 51.14 72.7 50.07 71.23 49.01 70.45 50.08" fill="#1e1e1e" />
			<polygon points="71.44 40.62 70.71 42.88 72.97 43.61 75.15 40.61 71.44 40.62" fill="#1e1e1e" />
			<polygon points="68.28 44.73 68.51 44.01 67.8 43.78 67.8 44.38 68.28 44.73" fill="#1e1e1e" />
			<polygon points="72.26 52.55 73.67 54.47 77.19 53.32 74.19 51.14 72.26 52.55" fill="#1e1e1e" />
			<polygon points="69.37 48.6 69.81 47.98 69.2 47.54 69.02 48.11 69.37 48.6" fill="#1e1e1e" />
			<polygon points="70.84 46.57 71.9 45.1 70.17 44.54 69.77 45.8 70.84 46.57" fill="#1e1e1e" />
			<polygon points="69.83 52.17 69.38 51.56 69.03 52.05 69.22 52.61 69.83 52.17" fill="#1e1e1e" />
			<polygon points="71.93 55.05 70.85 53.58 69.79 54.36 70.2 55.61 71.93 55.05" fill="#1e1e1e" />
		</g>
		<path
			d="M50.11.49,50,0,45.92,18.38A36.19,36.19,0,0,1,18.38,45.92L0,50l18.38,4.08A36.19,36.19,0,0,1,45.92,81.62L50,100l.11-.49Z"
			fill="#1e1e1e" />
	</g>
</svg>