<svg xmlns="http://www.w3.org/2000/svg" viewBox="0 0 423.93 391.94">
	<g id="L_2" data-name="L2">
		<g id="L_1-2" data-name="L1">
			<g opacity="0.85">
				<polygon points="227.56 146.34 229.46 147.72 231.69 146.99 229.94 144.6 227.56 146.34" fill="#fff" />
				<polygon points="229.7 245.06 227.81 246.44 230.21 248.17 231.93 245.78 229.7 245.06" fill="#fff" />
				<polygon points="242.75 150.55 244.13 152.44 246.48 152.44 245.56 149.63 242.75 150.55" fill="#fff" />
				<polygon points="244.36 240.26 242.98 242.16 245.79 243.06 246.7 240.25 244.36 240.26" fill="#fff" />
				<path d="M245.14,267.39l-5.31,16.46,10.68,14.61a142,142,0,0,1,8.65-18.06v-2.88Z" fill="#fff" />
				<polygon points="341.84 196.1 310.54 186.02 296.57 196.22 310.59 206.35 341.84 196.1" fill="#fff" />
				<path d="M274.19,133.06c-3-3.6-5.92-7.35-8.6-11.24l0,14Z" fill="#fff" />
				<path d="M265.93,256.73l0,12.84q3.7-5.32,7.89-10.29Z" fill="#fff" />
				<polygon points="227.53 94.63 227.53 113.62 231.81 107.69 227.53 94.63" fill="#fff" />
				<polygon points="241.51 256.34 243.7 249.57 238.77 247.98 235.75 252.17 241.51 256.34" fill="#fff" />
				<path d="M244.78,125.31l14-10.2V110.8a142.17,142.17,0,0,1-8.22-17.31l-11.12,15.38Z" fill="#fff" />
				<polygon points="388.26 203.88 423.93 195.97 388.3 188.07 363.96 196.05 388.26 203.88" fill="#fff" />
				<polygon points="252.05 147.5 253.66 152.42 258.84 152.41 258.82 145.29 252.05 147.5" fill="#fff" />
				<polygon points="247.01 132.13 249.92 141.01 258.8 138.1 258.76 123.55 247.01 132.13" fill="#fff" />
				<polygon points="227.53 125.28 227.53 129.72 231.43 135.05 238.97 129.54 234.44 115.72 227.53 125.28"
					fill="#fff" />
				<polygon points="235.46 140.57 238.51 144.75 243.43 143.14 241.21 136.37 235.46 140.57" fill="#fff" />
				<polygon points="227.53 278.6 227.53 299.75 232.26 285.07 227.53 278.6" fill="#fff" />
				<polygon points="272.99 233.35 270.78 226.59 265.86 228.2 265.87 233.37 272.99 233.35" fill="#fff" />
				<polygon points="250.2 251.66 247.34 260.55 259.13 269.07 259.09 254.53 250.2 251.66" fill="#fff" />
				<polygon points="239.31 263.18 231.74 257.71 227.53 263.54 227.53 267.01 234.85 277.03 239.31 263.18"
					fill="#fff" />
				<polygon points="255.9 159.25 256.63 161.47 258.86 162.19 258.85 159.24 255.9 159.25" fill="#fff" />
				<polygon points="256.81 231.16 256.09 233.39 259.04 233.39 259.03 230.44 256.81 231.16" fill="#fff" />
				<polygon points="253.89 240.23 252.3 245.16 259.07 247.34 259.06 240.22 253.89 240.23" fill="#fff" />
				<path d="M309.32,178.45l12.2-8.91a141.7,141.7,0,0,1-18.23-10.41H303l-10.13,14Z" fill="#fff" />
				<path d="M375.06,206.81l-22.15-7.14L317.43,211.3l11.08,8a142.12,142.12,0,0,1,23.37-7.36Z" fill="#fff" />
				<polygon points="283.18 186.54 290.75 192.01 302.5 183.43 288.65 178.97 283.18 186.54" fill="#fff" />
				<path d="M265.67,152.39l9.34,0,4.35-13.52-.21-.22-13.5,4.42Z" fill="#fff" />
				<polygon points="294.73 233.3 286.15 221.55 277.27 224.46 280.18 233.33 294.73 233.3" fill="#fff" />
				<path d="M282.42,240.16l2.43,7.44c2.74-2.6,5.56-5.09,8.5-7.47Z" fill="#fff" />
				<polygon points="268.65 220.09 267.73 217.29 265.84 218.67 265.84 221.01 268.65 220.09" fill="#fff" />
				<polygon points="227.53 354.67 227.53 390.04 227.96 391.94 232.71 370.48 227.53 354.67" fill="#fff" />
				<path d="M328.73,172.73,317.36,181l35.53,11.44,22.32-7.31L351.88,180A141.91,141.91,0,0,1,328.73,172.73Z"
					fill="#fff" />
				<polygon points="232.46 20.34 227.96 0 227.53 1.9 227.53 35.64 232.46 20.34" fill="#fff" />
				<path
					d="M247.7,306.21l-10.46-14.32L227.53,322v10.69l8.09,24.66,8.31-37.49A141.68,141.68,0,0,1,247.7,306.21Z"
					fill="#fff" />
				<path d="M227.53,57.93V72.68l9.23,28.17L247.7,85.72c-1.47-4.47-2.74-9-3.77-13.67l-8.54-38.51Z"
					fill="#fff" />
				<path d="M294,152.32q-4.78-3.82-9.21-8l-2.59,8.06Z" fill="#fff" />
				<path d="M265.89,240.2l0,9.34,12.88,4.15c.21-.23.43-.45.65-.67l-4.21-12.84Z" fill="#fff" />
				<path d="M293,219.31,303,233a141.25,141.25,0,0,1,18.3-10.5l-11.88-8.59Z" fill="#fff" />
				<polygon points="270.62 165.98 272.81 159.21 265.69 159.22 265.7 164.4 270.62 165.98" fill="#fff" />
				<polygon points="276.15 196.27 279.19 200.45 284.95 196.25 279.18 192.08 276.15 196.27" fill="#fff" />
				<polygon points="279.99 159.19 277.13 168.08 286.02 170.94 294.54 159.15 279.99 159.19" fill="#fff" />
				<polygon points="267.62 175.3 268.53 172.49 265.72 171.58 265.73 173.92 267.62 175.3" fill="#fff" />
				<polygon points="283.23 205.97 288.74 213.51 302.56 208.98 290.77 200.46 283.23 205.97" fill="#fff" />
				<polygon points="271.91 190.47 273.64 188.07 271.25 186.35 270.53 188.58 271.91 190.47" fill="#fff" />
				<polygon points="277.64 182.53 281.81 176.76 275.03 174.58 273.45 179.51 277.64 182.53" fill="#fff" />
				<polygon points="273.68 204.48 271.94 202.09 270.56 203.99 271.29 206.22 273.68 204.48" fill="#fff" />
				<polygon points="281.91 215.75 277.71 210 273.53 213.05 275.14 217.96 281.91 215.75" fill="#fff" />
			</g>
			<path
				d="M196.39,1.9,196,0,180,72.05A142.07,142.07,0,0,1,72.05,180L0,196l72.05,16a142.07,142.07,0,0,1,108,108l16,72,.42-1.9Z"
				fill="#fff" />
		</g>
	</g>
</svg>